<svg id="logo" xmlns="http://www.w3.org/2000/svg" viewBox="0 0 578.27 221.1"><defs><style>.cls-1{fill:#fff;}.cls-2{fill:#00a650;}.cls-3{fill:#ef3e34;}</style></defs><g id="Song_Contest" data-name="Song Contest"><path d="M100.31,177.46l3.89-4.66c2.69,2.22,5.51,3.63,8.93,3.63,2.7,0,4.32-1.07,4.32-2.82v-.09c0-1.66-1-2.52-6-3.8-6-1.54-9.91-3.21-9.91-9.15v-.08c0-5.43,4.36-9,10.47-9a17.28,17.28,0,0,1,11.11,3.8l-3.42,5c-2.65-1.84-5.26-2.95-7.78-2.95s-3.84,1.15-3.84,2.61V160c0,2,1.28,2.61,6.45,3.94,6.07,1.58,9.49,3.76,9.49,9V173c0,5.94-4.53,9.27-11,9.27A19,19,0,0,1,100.31,177.46Z"/><path d="M130.45,166.94v-.08c0-8.51,6.71-15.48,16-15.48s15.86,6.88,15.86,15.39v.09c0,8.5-6.72,15.47-15.95,15.47S130.45,175.45,130.45,166.94Zm24.92,0v-.08a9.09,9.09,0,0,0-9.06-9.41c-5.3,0-9,4.19-9,9.32v.09a9.09,9.09,0,0,0,9.07,9.4C151.7,176.26,155.37,172.07,155.37,166.94Z"/><path d="M169.83,151.89h6.07l14,18.43V151.89h6.5v29.93h-5.6l-14.49-19v19h-6.5Z"/><path d="M204.8,166.94v-.08a15.36,15.36,0,0,1,15.69-15.48c5.39,0,8.64,1.45,11.76,4.1l-4.15,5a11,11,0,0,0-7.82-3c-4.79,0-8.6,4.23-8.6,9.32v.09c0,5.47,3.77,9.49,9.07,9.49a10.45,10.45,0,0,0,6.19-1.8v-4.27h-6.62v-5.69h13v13a19.44,19.44,0,0,1-12.78,4.74C211.21,182.33,204.8,175.79,204.8,166.94Z"/><path d="M256.28,166.94v-.08a15.21,15.21,0,0,1,15.6-15.48c5.64,0,9,1.88,11.8,4.62l-4.19,4.83c-2.31-2.1-4.66-3.38-7.65-3.38-5,0-8.68,4.19-8.68,9.32v.09c0,5.13,3.55,9.4,8.68,9.4,3.42,0,5.51-1.37,7.86-3.5l4.19,4.23a15.31,15.31,0,0,1-12.27,5.34A15.1,15.1,0,0,1,256.28,166.94Z"/><path d="M289.54,166.94v-.08c0-8.51,6.71-15.48,15.95-15.48s15.86,6.88,15.86,15.39v.09c0,8.5-6.72,15.47-16,15.47S289.54,175.45,289.54,166.94Zm24.92,0v-.08a9.09,9.09,0,0,0-9.06-9.41c-5.3,0-9,4.19-9,9.32v.09a9.09,9.09,0,0,0,9.07,9.4C310.79,176.26,314.46,172.07,314.46,166.94Z"/><path d="M328.92,151.89H335l14,18.43V151.89h6.5v29.93h-5.6l-14.49-19v19h-6.5Z"/><path d="M371.59,158h-9.11v-6.07h24.79V158h-9.1v23.86h-6.58Z"/><path d="M394.89,151.89h22.57v5.86h-16v6.07h14.11v5.86H401.43V176h16.24v5.86H394.89Z"/><path d="M424,177.46l3.89-4.66c2.69,2.22,5.51,3.63,8.93,3.63,2.69,0,4.32-1.07,4.32-2.82v-.09c0-1.66-1-2.52-6-3.8-6-1.54-9.92-3.21-9.92-9.15v-.08c0-5.43,4.36-9,10.48-9a17.28,17.28,0,0,1,11.11,3.8l-3.42,5c-2.65-1.84-5.26-2.95-7.78-2.95s-3.85,1.15-3.85,2.61V160c0,2,1.28,2.61,6.46,3.94,6.07,1.58,9.49,3.76,9.49,9V173c0,5.94-4.53,9.27-11,9.27A19,19,0,0,1,424,177.46Z"/><path d="M462.27,158h-9.1v-6.07H478V158h-9.11v23.86h-6.58Z"/></g><g id="Eurovision"><path d="M499.77,53.86c3.32-3.86,5.59-6.11,5.08-8.79s-9.58-4.54-13.62-.81c-11.94-9.48-9.5,1.62-7.77,4.1-14.11,9.92-23.65,36-16,56.41,7.5,19.92,30.15,22.37,42,8.38,10.51-12.4,8.64-35.19-9.74-59.29m-9.18,57.36c-7.72-.39-12.13-9.52-11.59-18.86.95-16.44,14.69-33,14.69-33,3.21,2.93,12.86,18.8,12.34,30.94C505.51,102.12,498.3,111.6,490.59,111.22Z"/><path d="M57.58,14.26C31,12.33,1.55,34.38,2.68,62.92a5.6,5.6,0,0,0,5.75,5.26c4.12,0,16.17-.46,16.17-.46S.82,86.47.82,108.43c0,11.59,8.69,25.46,26.83,25.46C53.08,133.89,72,113.07,72,95.44c0-1.35-1.54-3.24-4-.23C64,100,42.9,121.69,22,121.69c-7,0-13.11-4-13.11-12.35,0-11,17.38-32.32,47.27-40.71,7.31-2.13,7.92-12.35-1.38-12.81-9.14-.44-40.71,3-43,3s-2.5-.49-1.68-2.59c1.07-2.74,12.65-23,47.42-26.83C69.28,28.53,68.1,15,57.58,14.26Z"/><path d="M95.21,47.61c0-6.9-10.24-11.14-14.1-1.37C73.68,65,71.42,122,96.29,122c10.91,0,24.84-23.92,24.84-47.27,0-19.25-7.88-31.84-9.55-34.11s-3.94-1.06-3.64,3.19,1.52,43.5-10.76,57.76c-4.85,5.3-8.43-.23-9-5.46C86.72,80.81,95.21,57.61,95.21,47.61Z"/><path d="M214.42,51.58s4-5.36,1.57-8.38c-2.67-3.41-11.22-4.47-19.23,4.5-10.55,11.82-17.94,36.76-9.95,57.67,7.64,20,29,21.7,38.93,6.54C234.59,98.38,232.26,75.83,214.42,51.58Zm-5.58,57.22c-7,0-10.86-9-10.86-18.82,0-17.25,12.41-33,12.41-33C213.8,61.38,222,73.66,222,86.1S215.82,108.8,208.84,108.8Z"/><path d="M181.58,123.56c-7.44-10.32-16.78-31-31.07-43.49,14.49-.92,32.63-12.2,32.63-24.25,0-8.92-9.28-15.34-21.32-15.34s-25.33,4.06-30.37,7.11C124.9,51.4,129.78,60.4,135.88,58c0,0-2.29,10.67-2.9,16.31-4.95-.61-5.95.31-5.64,1.38s2.44,2,4.88,5c-.77,6.71-2.11,36.54-1.81,39.13s1.88,3.06,4.12.31c2-2.44,6.23-8.34,8.21-30.6,2.28,2,8.54,10.36,16.16,20.13,11.18,14.33,14.87,15.36,19.46,17C180.84,127.51,183.4,126.08,181.58,123.56ZM144.26,72c.61-7.78,1.22-15.86,1.22-15.86s17.39-4.42,23.33-3.81c5.18.53,6.25,2.74,3.62,6.83C166.22,68.79,152,72.13,144.26,72Z"/><path d="M366.85,42.45c.4,15.5-13.23,40.14-14.1,58.13-.64,13.11,1.71,18.41,2.83,20.14s3.73,2,4.41-1.33c2-9.82,16.07-35.72,17.87-56.54,1.1-12.77-2.86-20.58-7.42-22.06C368.41,40.14,366.79,40.38,366.85,42.45Z"/><path d="M417.66,40.48c-19.06,0-32.81,6.75-32.81,22.1,0,9.46,7,16,18.19,17.79,6.51,1.22,12.84,1.7,15.15,2.54,4.17,1.53-5.81,6.33-21.35,16.87-10.62,7.2-18.37,14.81-22.52,22.89-1.43,2.79.51,5.46,3.51,3.4,5.83-4,18.6-10.7,31-17.52,11.79-6.49,22.89-13.61,22.89-22.48,0-8-6-11.06-10.67-11.59-8-.92-25.42-.21-25.42-10.27,0-3.76,5-8.69,21-8.69C429,55.52,427.72,40.48,417.66,40.48Z"/><path d="M441.67,43.27c6.24,12-4.38,44.55-4.38,56.93s1.4,16.73,4.67,20.74c1.68,2.06,3.87.83,4.08-1.39,1-10.91,12.73-40.51,13.49-54.27,1-17.52-7.69-24.31-12.76-24.74C444,40.3,440.25,40.81,441.67,43.27Z"/><path d="M446,26.38c-.32,11.41,18.71,13.25,18.71-.7,0-12.16-10.17-22.21-12.21-23.89-3.18-2.59-7.67-2.12-6.61,2.07C448.29,12.63,446.07,22.39,446,26.38Z"/><path d="M576.52,120.82c-2.49-15.33.93-35,.93-53.63,0-14.19-11.79-21.48-18.78-21.48-9.09,0-14.49,4.1-14.49,4.1.1-2.7.57-6.85.48-8.16-.1-1.5-1.9-1.5-4.49-.1-14.29,8.89-16.35,34.4-16.35,52.08s2.81,24,3.11,26.35,3.08,2.61,4.18.62c7.59-14.79,8.48-41.72,11.07-56.71,3.6-4.89,18.28-5.79,18.89,5.9.61,11.9-.54,42,11.62,52.47C574.33,123.67,576.88,123,576.52,120.82Z"/><path d="M328.94.17c-13.42,0-29.29,9.91-38.89,26.38-2.59-5.95-11.83-12.43-22.8-12.43-8.85,0-33.68,11.06-33.68,46.74,0,46,46.59,55.5,56,69.81a1.91,1.91,0,0,0,3.53-.62c7.51-22.18,65.78-47.24,65.78-92.37C358.89,12.37,342.36.17,328.94.17ZM246.3,58.72c.31-28.51,15.15-37.43,23.23-37.43,11.29,0,16,8.61,16.71,12.43s5,6.86,6.4.6S307.29,9,323.61,9c14.94,0,20.11,15.41,19.66,28.52-1.22,35.68-47.18,64.15-53.23,82.13C284.65,108.77,245.92,93,246.3,58.72Z"/><path class="cls-1" d="M292.65,34.32c-1.38,6.26-5.65,3.21-6.41-.6a16.41,16.41,0,0,0-9.65-11.1v84.32C283,112,288.28,116.1,290,119.66c2.47-7.32,11.56-16.39,21.55-27V12.36C301.17,18.12,293.66,29.71,292.65,34.32Z"/><path class="cls-2" d="M277.07,107.33V22.83a18.23,18.23,0,0,0-7.54-1.54c-8.08,0-22.92,8.92-23.23,37.43C246,82.1,263.93,96.85,277.07,107.33Z"/><path class="cls-3" d="M323.61,9a25,25,0,0,0-12.16,3.43V92.83c14.56-15.43,31.1-34.09,31.82-55.3C343.72,24.42,338.55,9,323.61,9Z"/></g><g id="Turin_2022" data-name="Turin 2022"><path d="M303.75,218.74l7.62-6.72c3.21-2.88,4.38-4.5,4.38-6.6a4,4,0,0,0-4.23-4c-2.4,0-4,1.26-5.64,3.6l-1.74-1.26c1.89-2.82,3.87-4.47,7.56-4.47s6.51,2.52,6.51,5.94v.06c0,3.06-1.62,4.95-5.31,8.16l-5.61,5h11.13v2.16H303.75Z"/><path d="M323,210.13v-.06c0-5.88,3.51-10.86,8.91-10.86s8.82,4.92,8.82,10.8v.06c0,5.88-3.48,10.86-8.88,10.86S323,216,323,210.13Zm15.27,0v-.06c0-4.59-2.52-8.7-6.42-8.7s-6.39,4-6.39,8.64v.06c0,4.59,2.52,8.7,6.45,8.7S338.31,214.72,338.31,210.13Z"/><path d="M344.67,218.74l7.62-6.72c3.21-2.88,4.38-4.5,4.38-6.6a4,4,0,0,0-4.23-4c-2.4,0-4,1.26-5.64,3.6l-1.74-1.26c1.89-2.82,3.87-4.47,7.56-4.47s6.51,2.52,6.51,5.94v.06c0,3.06-1.62,4.95-5.31,8.16l-5.61,5h11.13v2.16H344.67Z"/><path d="M363.54,218.74l7.62-6.72c3.21-2.88,4.38-4.5,4.38-6.6a4,4,0,0,0-4.23-4c-2.4,0-4,1.26-5.64,3.6l-1.74-1.26c1.89-2.82,3.87-4.47,7.56-4.47s6.51,2.52,6.51,5.94v.06c0,3.06-1.62,4.95-5.31,8.16l-5.61,5h11.13v2.16H363.54Z"/><path d="M207.11,201.76h-7.05v-2.19h16.47v2.19h-7.05v18.81h-2.37Z"/><path d="M229.4,220.9a10.35,10.35,0,0,1-3.56-.58,7.46,7.46,0,0,1-2.76-1.74,7.81,7.81,0,0,1-1.78-2.87,11.33,11.33,0,0,1-.63-3.93V199.57H223v12.06a7.45,7.45,0,0,0,1.69,5.25,7,7,0,0,0,9.35.09,7.12,7.12,0,0,0,1.71-5.19V199.57h2.37v12a11.88,11.88,0,0,1-.63,4.05,7.91,7.91,0,0,1-1.79,2.91,7.38,7.38,0,0,1-2.76,1.76A10.38,10.38,0,0,1,229.4,220.9Z"/><path d="M243.77,199.57h9a10,10,0,0,1,3.46.56,6.79,6.79,0,0,1,2.51,1.54,5.39,5.39,0,0,1,1.2,1.83,6.17,6.17,0,0,1,.42,2.31v.06a6.25,6.25,0,0,1-.42,2.36,5.39,5.39,0,0,1-1.19,1.8,6.37,6.37,0,0,1-1.81,1.26,8.78,8.78,0,0,1-2.28.7l6.45,8.58h-2.91l-6.09-8.16h-6v8.16h-2.37Zm8.83,10.71a7.49,7.49,0,0,0,2.17-.3,5.27,5.27,0,0,0,1.71-.85A3.85,3.85,0,0,0,258,206v-.06a3.64,3.64,0,0,0-1.42-3,6.33,6.33,0,0,0-4-1.1h-6.49v8.52Z"/><path d="M265.67,199.57H268v21h-2.37Z"/><path d="M274.19,199.57h2.21l13.23,16.83V199.57H292v21h-1.9l-13.56-17.22v17.22h-2.3Z"/></g></svg>