<?xml version="1.0" encoding="UTF-8"?>
<svg id="LOGO_LAYER" data-name="LOGO LAYER" xmlns="http://www.w3.org/2000/svg" viewBox="0 0 576.63 326.74">
  <defs>
    <style>
      .cls-1, .cls-2, .cls-3 {
        stroke-width: 0px;
      }

      .cls-2 {
        fill: #f9f9f9;
      }

      .cls-3 {
        fill: red;
      }
    </style>
  </defs>
  <g id="LOGO_GROUP" data-name="LOGO GROUP">
    <g id="SELECT_FLAG_HERE" data-name="SELECT FLAG HERE">
      <g id="SWITZERLAND">
        <path class="cls-3" d="m322.79,106.72c-16.31,0-29.59,19.06-30.96,25.31-1.37,6.25-5.64,3.2-6.4-.61-.76-3.81-5.42-12.43-16.71-12.43-8.08,0-22.92,8.92-23.23,37.43-.38,34.31,38.35,50.05,43.74,60.94,6.05-17.98,52.01-46.46,53.24-82.14.45-13.11-4.73-28.52-19.67-28.52Zm-8.81,63.89l-16.38,1.72v16.38l-14.04,1.48v-16.38l-16.38,1.72v-14.04l16.38-1.72v-16.38l14.04-1.48v16.38l16.38-1.72v14.04Z"/>
        <polygon class="cls-2" points="297.6 141.92 283.56 143.39 283.56 159.77 267.18 161.49 267.18 175.53 283.56 173.8 283.56 190.18 297.6 188.71 297.6 172.33 313.98 170.61 313.98 156.57 297.6 158.29 297.6 141.92"/>
      </g>
    </g>
    <g id="CHANGE_GROUP_FILL_COLOUR" data-name="CHANGE GROUP FILL COLOUR">
      <path id="HEART_SHAPE" data-name="HEART SHAPE" class="cls-1" d="m328.12,97.88c-13.42,0-29.29,9.91-38.89,26.38-2.59-5.95-11.83-12.43-22.8-12.43-8.84,0-33.67,11.05-33.67,46.73,0,46.05,46.59,55.51,56.01,69.82.65.99,2.73,1.73,3.53-.62,7.51-22.18,65.79-47.24,65.79-92.37,0-25.31-16.53-37.51-29.95-37.51Zm14.33,37.36c-1.22,35.68-47.19,64.15-53.24,82.14-5.39-10.89-44.12-26.63-43.74-60.94.32-28.51,15.16-37.43,23.23-37.43,11.28,0,15.94,8.61,16.71,12.43.76,3.81,5.03,6.86,6.4.61,1.37-6.25,14.65-25.31,30.96-25.31,14.94,0,20.12,15.41,19.67,28.52Z"/>
      <g id="SONG_CONTEST" data-name="SONG CONTEST">
        <path class="cls-1" d="m100.4,275.17l3.89-4.66c2.69,2.22,5.51,3.63,8.93,3.63,2.69,0,4.32-1.07,4.32-2.82v-.09c0-1.67-1.03-2.52-6.03-3.8-6.03-1.54-9.92-3.21-9.92-9.15v-.08c0-5.43,4.36-9.02,10.47-9.02,4.36,0,8.08,1.37,11.11,3.8l-3.42,4.96c-2.65-1.84-5.26-2.95-7.78-2.95s-3.85,1.15-3.85,2.61v.08c0,1.97,1.28,2.61,6.45,3.93,6.07,1.58,9.49,3.76,9.49,8.98v.09c0,5.94-4.53,9.28-10.99,9.28-4.53,0-9.1-1.58-12.7-4.79Z"/>
        <path class="cls-1" d="m146.49,249.09c-9.23,0-15.94,6.97-15.94,15.48v.09c0,8.51,6.63,15.39,15.86,15.39s15.94-6.97,15.94-15.47v-.09c0-8.51-6.63-15.39-15.86-15.39Zm8.98,15.56c0,5.13-3.68,9.32-8.98,9.32s-9.06-4.27-9.06-9.41v-.09c0-5.13,3.68-9.32,8.98-9.32s9.06,4.28,9.06,9.41v.09Z"/>
        <polygon class="cls-1" points="169.92 249.6 175.99 249.6 190.01 268.03 190.01 249.6 196.51 249.6 196.51 279.52 190.91 279.52 176.42 260.5 176.42 279.52 169.92 279.52 169.92 249.6"/>
        <path class="cls-1" d="m204.89,264.65v-.09c0-8.51,6.63-15.48,15.69-15.48,5.39,0,8.64,1.45,11.76,4.1l-4.15,5c-2.31-1.92-4.36-3.04-7.82-3.04-4.79,0-8.59,4.23-8.59,9.32v.09c0,5.47,3.76,9.49,9.06,9.49,2.39,0,4.53-.6,6.2-1.8v-4.28h-6.62v-5.69h13v13c-3.08,2.61-7.31,4.74-12.78,4.74-9.32,0-15.73-6.54-15.73-15.39Z"/>
        <path class="cls-1" d="m256.37,264.65v-.09c0-8.51,6.41-15.48,15.6-15.48,5.64,0,9.02,1.88,11.8,4.62l-4.19,4.83c-2.31-2.1-4.66-3.38-7.65-3.38-5.04,0-8.68,4.19-8.68,9.32v.09c0,5.13,3.55,9.41,8.68,9.41,3.42,0,5.51-1.37,7.86-3.5l4.19,4.23c-3.08,3.29-6.5,5.34-12.27,5.34-8.81,0-15.35-6.8-15.35-15.39Z"/>
        <path class="cls-1" d="m305.58,249.09c-9.24,0-15.95,6.97-15.95,15.48v.09c0,8.51,6.63,15.39,15.86,15.39s15.94-6.97,15.94-15.47v-.09c0-8.51-6.62-15.39-15.86-15.39Zm8.98,15.56c0,5.13-3.68,9.32-8.98,9.32s-9.06-4.27-9.06-9.41v-.09c0-5.13,3.68-9.32,8.98-9.32s9.06,4.28,9.06,9.41v.09Z"/>
        <polygon class="cls-1" points="329.01 249.6 335.08 249.6 349.1 268.03 349.1 249.6 355.6 249.6 355.6 279.52 350 279.52 335.51 260.5 335.51 279.52 329.01 279.52 329.01 249.6"/>
        <polygon class="cls-1" points="371.68 255.67 362.57 255.67 362.57 249.6 387.37 249.6 387.37 255.67 378.26 255.67 378.26 279.52 371.68 279.52 371.68 255.67"/>
        <polygon class="cls-1" points="394.98 249.6 417.55 249.6 417.55 255.46 401.52 255.46 401.52 261.53 415.63 261.53 415.63 267.38 401.52 267.38 401.52 273.67 417.76 273.67 417.76 279.52 394.98 279.52 394.98 249.6"/>
        <path class="cls-1" d="m424.1,275.17l3.89-4.66c2.69,2.22,5.51,3.63,8.94,3.63,2.69,0,4.32-1.07,4.32-2.82v-.09c0-1.67-1.03-2.52-6.03-3.8-6.03-1.54-9.92-3.21-9.92-9.15v-.08c0-5.43,4.36-9.02,10.47-9.02,4.36,0,8.08,1.37,11.11,3.8l-3.42,4.96c-2.65-1.84-5.26-2.95-7.78-2.95s-3.85,1.15-3.85,2.61v.08c0,1.97,1.28,2.61,6.45,3.93,6.07,1.58,9.49,3.76,9.49,8.98v.09c0,5.94-4.53,9.28-10.99,9.28-4.53,0-9.1-1.58-12.7-4.79Z"/>
        <polygon class="cls-1" points="462.36 255.67 453.26 255.67 453.26 249.6 478.05 249.6 478.05 255.67 468.94 255.67 468.94 279.52 462.36 279.52 462.36 255.67"/>
      </g>
      <g id="EUROVISION">
        <path class="cls-1" d="m56.72,127.15c-34.76,3.81-46.35,24.09-47.42,26.84-.82,2.1-.61,2.59,1.68,2.59s33.86-3.5,43-3.05c9.3.46,8.69,10.67,1.37,12.81-29.88,8.39-47.27,29.73-47.27,40.71,0,8.38,6.1,12.35,13.11,12.35,20.89,0,42.02-21.71,45.96-26.48,2.48-3.01,4.02-1.12,4.03.22.04,17.64-18.92,38.46-44.35,38.46-18.14,0-26.84-13.88-26.84-25.46,0-21.96,23.79-40.71,23.79-40.71,0,0-12.06.46-16.17.46-3.33,0-5.64-2.51-5.75-5.25-1.12-28.55,28.29-50.59,54.9-48.66,10.52.76,11.7,14.27-.04,15.18Z"/>
        <path class="cls-1" d="m87.42,193.82c.52,5.24,4.09,10.76,8.94,5.46,12.28-14.25,11.07-53.52,10.77-57.76-.3-4.25,1.97-5.46,3.64-3.19,1.67,2.27,9.55,14.86,9.55,34.11,0,23.35-13.93,47.27-24.85,47.27-24.86,0-22.61-56.97-15.18-75.77,3.86-9.76,14.1-5.53,14.1,1.37,0,10-8.49,33.2-6.97,48.51Z"/>
        <path class="cls-1" d="m149.7,177.77c14.49-.92,32.63-12.2,32.63-24.24,0-8.92-9.28-15.35-21.33-15.35s-25.33,4.07-30.36,7.11c-6.56,3.81-1.68,12.81,4.42,10.37,0,0-2.29,10.67-2.9,16.31-4.95-.61-5.95.3-5.64,1.37.31,1.07,2.44,1.98,4.88,5.03-.76,6.71-2.11,36.54-1.81,39.13.31,2.61,1.88,3.06,4.12.3,1.98-2.44,6.23-8.33,8.21-30.59,2.29,1.98,8.54,10.35,16.16,20.13,11.18,14.33,14.87,15.37,19.46,16.98,2.48.87,5.03-.55,3.21-3.08-7.44-10.32-16.78-30.98-31.06-43.49Zm-5.03-23.94s17.38-4.42,23.33-3.81c5.18.53,6.25,2.74,3.62,6.84-6.21,9.64-20.48,12.97-28.17,12.83.61-7.77,1.22-15.86,1.22-15.86Z"/>
        <path class="cls-1" d="m213.6,149.29s3.95-5.36,1.57-8.38c-2.67-3.41-11.22-4.47-19.23,4.51-10.55,11.82-17.94,36.75-9.95,57.67,7.64,20,29.03,21.69,38.94,6.53,8.84-13.53,6.52-36.07-11.32-60.33Zm-5.58,57.21c-6.98,0-10.86-9.02-10.86-18.81,0-17.26,12.41-32.96,12.41-32.96,3.41,4.35,11.64,16.64,11.64,29.07s-6.21,22.7-13.19,22.7Z"/>
        <path class="cls-1" d="m369.62,138.5c4.56,1.48,8.52,9.29,7.42,22.05-1.8,20.83-15.83,46.72-17.87,56.55-.68,3.29-3.24,3.13-4.41,1.32-1.12-1.73-3.47-7.03-2.83-20.14.87-17.98,14.5-42.62,14.09-58.12-.06-2.07,1.56-2.32,3.6-1.66Z"/>
        <path class="cls-1" d="m415.8,153.22c-16.01,0-20.99,4.93-20.99,8.69,0,10.06,17.38,9.35,25.41,10.27,4.65.53,10.67,3.56,10.67,11.59,0,8.87-11.11,16-22.9,22.49-12.39,6.82-25.16,13.5-30.99,17.52-3,2.07-4.94-.6-3.51-3.4,4.14-8.08,11.9-15.69,22.51-22.89,15.54-10.54,25.52-15.34,21.35-16.87-2.31-.84-8.64-1.32-15.15-2.54-11.18-1.83-18.19-8.34-18.19-17.79,0-15.35,13.75-22.11,32.81-22.11,10.06,0,11.3,15.04-1.05,15.04Z"/>
        <path class="cls-1" d="m445.96,138.24c5.07.43,13.72,7.22,12.76,24.74-.76,13.76-12.47,43.36-13.49,54.27-.2,2.22-2.4,3.45-4.08,1.4-3.28-4.01-4.67-8.37-4.67-20.75s10.62-44.95,4.38-56.92c-1.42-2.46,2.29-2.97,5.1-2.74Z"/>
        <path class="cls-1" d="m445.04,101.56c-1.06-4.18,3.43-4.65,6.61-2.06,2.04,1.67,12.21,11.73,12.21,23.89,0,13.95-19.03,12.11-18.71.7.11-3.99,2.33-13.75-.11-22.52Z"/>
        <path class="cls-1" d="m498.95,151.57c3.32-3.86,5.59-6.12,5.08-8.79-.51-2.68-9.58-4.54-13.62-.81-11.94-9.48-9.5,1.62-7.77,4.1-14.11,9.92-23.65,36.03-15.97,56.41,7.51,19.92,30.15,22.38,42.02,8.38,10.51-12.4,8.64-35.18-9.74-59.28m-9.18,57.35c-7.71-.39-12.12-9.52-11.58-18.85.95-16.44,14.69-33.04,14.69-33.04,3.21,2.93,12.86,18.8,12.33,30.94-.51,11.86-7.73,21.34-15.44,20.95Z"/>
        <path class="cls-1" d="m571.88,219.96c-12.17-10.5-11.02-40.57-11.63-52.47-.6-11.69-15.28-10.79-18.88-5.89-2.6,14.99-3.48,41.91-11.08,56.7-1.1,2-3.9,1.66-4.18-.62-.3-2.4-3.11-8.66-3.11-26.35s2.06-43.19,16.35-52.08c2.6-1.4,4.39-1.4,4.49.1.09,1.31-.38,5.46-.48,8.16,0,0,5.4-4.1,14.49-4.1,7,0,18.79,7.29,18.79,21.48,0,18.58-3.42,38.3-.93,53.63.36,2.2-2.18,2.85-3.82,1.43Z"/>
      </g>
    </g>
  </g>
  <g>
    <path class="cls-1" d="m183.38,303.08h9.9c2.66,0,4.75.76,6.08,2.06.96,1,1.5,2.23,1.5,3.72v.07c0,3.02-1.86,4.59-3.69,5.38,2.76.83,4.98,2.43,4.98,5.62v.07c0,3.99-3.36,6.35-8.44,6.35h-10.34v-23.26Zm9.47,10.37c3.16,0,5.35-1.43,5.35-4.15v-.07c0-2.29-1.83-3.79-5.15-3.79h-7.08v8.01h6.88Zm.93,10.54c3.52,0,5.72-1.56,5.72-4.15v-.07c0-2.53-2.13-3.99-6.18-3.99h-7.34v8.21h7.81Z"/>
    <path class="cls-1" d="m216.98,302.91h2.46l10.6,23.43h-2.82l-2.73-6.15h-12.66l-2.76,6.15h-2.69l10.6-23.43Zm6.48,14.92l-5.28-11.86-5.32,11.86h10.6Z"/>
    <path class="cls-1" d="m233.64,322.95l1.63-1.93c2.43,2.19,4.75,3.29,7.98,3.29s5.18-1.66,5.18-3.96v-.07c0-2.16-1.16-3.39-6.05-4.42-5.35-1.16-7.81-2.89-7.81-6.71v-.07c0-3.66,3.22-6.35,7.64-6.35,3.39,0,5.82.96,8.18,2.86l-1.53,2.03c-2.16-1.76-4.32-2.53-6.71-2.53-3.02,0-4.95,1.66-4.95,3.76v.07c0,2.19,1.2,3.42,6.31,4.52,5.18,1.13,7.58,3.02,7.58,6.58v.07c0,3.99-3.32,6.58-7.94,6.58-3.69,0-6.71-1.23-9.5-3.72Z"/>
    <path class="cls-1" d="m257.44,303.08h16.82v2.39h-14.19v7.94h12.7v2.39h-12.7v8.14h14.36v2.39h-16.98v-23.26Z"/>
    <path class="cls-1" d="m280.7,303.08h2.63v20.84h13.09v2.43h-15.72v-23.26Z"/>
    <path class="cls-1" d="m311.55,324.31l8.44-7.44c3.56-3.19,4.85-4.99,4.85-7.31,0-2.72-2.16-4.45-4.69-4.45-2.66,0-4.39,1.4-6.25,3.99l-1.93-1.4c2.09-3.12,4.29-4.95,8.38-4.95s7.21,2.79,7.21,6.58v.07c0,3.39-1.79,5.48-5.88,9.04l-6.21,5.52h12.33v2.39h-16.25v-2.03Z"/>
    <path class="cls-1" d="m332.92,314.78v-.07c0-6.51,3.89-12.03,9.87-12.03s9.77,5.45,9.77,11.96v.07c0,6.51-3.86,12.03-9.84,12.03s-9.8-5.45-9.8-11.96Zm16.92,0v-.07c0-5.08-2.79-9.64-7.11-9.64s-7.08,4.45-7.08,9.57v.07c0,5.08,2.79,9.64,7.14,9.64s7.05-4.49,7.05-9.57Z"/>
    <path class="cls-1" d="m356.89,324.31l8.44-7.44c3.56-3.19,4.85-4.99,4.85-7.31,0-2.72-2.16-4.45-4.69-4.45-2.66,0-4.39,1.4-6.25,3.99l-1.93-1.4c2.09-3.12,4.29-4.95,8.38-4.95s7.21,2.79,7.21,6.58v.07c0,3.39-1.79,5.48-5.88,9.04l-6.21,5.52h12.33v2.39h-16.25v-2.03Z"/>
    <path class="cls-1" d="m377.96,323.05l1.73-1.89c2.03,1.96,4.25,3.19,6.61,3.19,3.32,0,5.62-2.19,5.62-5.15v-.07c0-2.89-2.39-4.88-5.78-4.88-1.96,0-3.52.6-4.88,1.33l-1.76-1.16.66-11.33h13.39v2.43h-11.1l-.5,7.44c1.36-.6,2.66-1.03,4.59-1.03,4.52,0,8.04,2.69,8.04,7.11v.07c0,4.55-3.46,7.64-8.31,7.64-3.32,0-6.21-1.59-8.31-3.69Z"/>
  </g>
</svg>