<svg xmlns="http://www.w3.org/2000/svg" xmlns:xlink="http://www.w3.org/1999/xlink" viewBox="0 0 797.16 467"><defs><linearGradient id="a" x1="56.89" y1="183.42" x2="509.33" y2="-269.02" gradientUnits="userSpaceOnUse"><stop offset="0" stop-color="#c7fddb"/><stop offset=".04" stop-color="#d8fee6"/><stop offset=".1" stop-color="#e9fef1"/><stop offset=".17" stop-color="#f6fff9"/><stop offset=".27" stop-color="#fdfffe"/><stop offset=".5" stop-color="#fff"/><stop offset=".72" stop-color="#fffefd"/><stop offset=".8" stop-color="#fff9f6"/><stop offset=".85" stop-color="#fef2eb"/><stop offset=".9" stop-color="#fde7da"/><stop offset=".94" stop-color="#fcd9c4"/><stop offset=".97" stop-color="#fbc8a9"/><stop offset="1" stop-color="#fab58c"/></linearGradient><linearGradient id="b" x1="109.04" y1="257.89" x2="539.42" y2="-172.48" xlink:href="#a"/><linearGradient id="c" x1="159.62" y1="355.18" x2="611.37" y2="-96.57" xlink:href="#a"/><linearGradient id="d" x1="244.77" y1="434.3" x2="655.19" y2="23.87" xlink:href="#a"/><linearGradient id="e" x1="269.24" y1="574.47" x2="740.62" y2="103.09" xlink:href="#a"/><linearGradient id="f" x1="112.23" y1="296.3" x2="562.22" y2="-153.69" xlink:href="#a"/><linearGradient id="g" x1="180.6" y1="396.93" x2="624.94" y2="-47.4" xlink:href="#a"/><linearGradient id="h" x1="236.29" y1="472.05" x2="641.38" y2="66.96" xlink:href="#a"/><linearGradient id="i" x1="282.88" y1="570.84" x2="734.63" y2="119.09" xlink:href="#a"/><linearGradient id="j" x1="271.77" y1="698.24" x2="810.47" y2="159.55" xlink:href="#a"/><linearGradient id="k" x1="353.31" y1="724.84" x2="815.12" y2="263.03" xlink:href="#a"/><linearGradient id="l" x1="66.15" y1="319.33" x2="608.72" y2="-223.23" xlink:href="#a"/><linearGradient id="m" x1="138.05" y1="289.76" x2="569.52" y2="-141.7" xlink:href="#a"/><linearGradient id="n" x1="154.2" y1="340.82" x2="604.86" y2="-109.85" xlink:href="#a"/><linearGradient id="o" x1="213.6" y1="436.96" x2="650.22" y2=".34" xlink:href="#a"/><linearGradient id="p" x1="200.03" y1="490.17" x2="702.92" y2="-12.71" xlink:href="#a"/></defs><g data-name="Layer 2"><g data-name="title + info"><path d="M46.42 154.62c.22-1.12 1.78-1.34 2.22.22 6 24.64 22 51.07 39.08 51.07 4 0 6.22-2 6.22-5.55-.67-12-15.54-24.43-28.87-35.31-12.88-10.66-26.2-22.43-26.87-37.53-1.33-21.31 23.76-34 54.41-34 16 0 48.4 5.33 46.18 13.77L129 142.4a.79.79 0 0 1-1.55-.22c-6.66-29.75-28.65-46-42.63-46-3.33 0-4.89 1.55-4.89 4.44 0 7.32 11.55 16 31.53 30.2 13.77 9.77 28 23.09 29.09 42 1.33 24-23.54 35.31-57.07 35.31-19.76 0-49.51-8-46.85-17.54Z" style="fill:url(#a)"/><path d="M149.45 152.84c0-35.75 30.64-58.84 69.06-59.07 39.08-.22 64.62 22.43 64.62 55.07 0 35.53-31.54 59.29-71.06 59.29-37.75 0-62.62-22.65-62.62-55.29Zm92.6 41.08c0-28-31.53-93.49-43.75-94.6-4.88-.44-8.66 2.89-8.66 8.66 0 27.76 31.76 92.82 44 93.93 5.52.45 8.41-3.33 8.41-7.99Z" style="fill:url(#b)"/><path d="M449.88 150.62c0 30.86-20.65 57.29-42.19 57.29-13.54 0-28-7.33-31.3-26.21-2.67 12.44-11.77 26.43-37.75 26.43-21.32 0-37.75-14-37.75-44.19v-20.2c0-18.66-1.11-27.76-14.44-26.65-1.33.22-1.55-1.78 0-2 19.77-4.22 45.53-13.32 63.07-24.87 1.33-.89 3.11-2 2.88 1.33-2.44 29.53-2.66 39.08-2.66 56v20.43c0 18.87 3.55 26.42 10.21 26.42 11.77 0 15.77-15.1 15.77-23.54v-27.12c0-18.66-1.11-27.76-14.43-26.65-1.34.22-1.56-1.78 0-2 19.76-4.22 45.52-13.32 63.06-24.87 1.33-.89 3.11-2 2.88 1.33-2.44 29.53-2.66 39.08-2.66 56v15.54c0 10.44 2.22 16.66 8.22 16.66 13.1 0 14.65-16.66 15.32-28.87 0-1.37 1.77-1.59 1.77-.26Z" style="fill:url(#c)"/><path d="M615.53 151.51c0 35.08-21.09 56.62-42.86 56.62-11.76 0-23.09-9.55-28-29.76l-14.88-59.51c-1.56-6-3.11-9.1-6.89-9.1-7.1 0-10.21 8.44-11.54 19.1-.22 6.21-.22 11.77-.22 18.65v26.42c0 20.21.22 27.76 13.32 28 1.78 0 1.78 2.22 0 2.22-12.88-.66-62.4-.44-75.5 0-1.77 0-1.77-2.22.22-2.22 10.44 0 13.11-.44 13.11-28.2v-30c0-18.66-1.12-27.76-14.44-26.65-1.33.22-1.55-1.78 0-2 19.76-4.22 45.52-13.32 63.07-24.87 1.33-.89 3.1-2 2.88 1.33-.89 10.66-1.55 18.65-1.78 25.54 4.45-12.44 15.55-23.76 34.87-23.76S576.23 102.65 580 118l13.55 54c1.11 5.11 3.77 7.78 8.44 7.78 8.88 0 11.54-18.43 11.32-28.2 0-1.58 2.22-2.52 2.22-.07Z" style="fill:url(#d)"/><path d="M767 150.62c0 30.86-20.65 57.29-42.19 57.29-10.44 0-21.76-4.44-27.76-15.33a.81.81 0 0 0-.22-.66 8.13 8.13 0 0 1-1.11-2.44 12.53 12.53 0 0 0-2.44-3.78c-1.12-1.11-2.22-1.33-3.56 1.11-8 14.88-19.54 21.32-31.31 21.32-22.2 0-44.85-18.88-44.85-53.74 0-37.3 30.42-60.84 55.51-60.84a47.13 47.13 0 0 1 22.87 5.55c-.44-23.09-3.33-24.2-9.32-23.54-2.67.23-2.44-2-2.22-2.22 21.54-6 44.41-15.32 62.39-30.64 0 0 3.11-.67 2.67 2.67a394.84 394.84 0 0 0-3.78 55.06v62.62c0 10.44 2.22 16.66 8.22 16.66 13.1 0 14.65-16.66 15.32-28.87-.03-1.33 1.78-1.55 1.78-.22Zm-74.17 18-.22-16.21c-1.78-33.3-11.33-55.95-29.76-55.95-7.32 0-7.77 7.77-7.77 13.76 0 33.09 22 73.06 33.75 73.06 1.53-.02 3.53-.69 3.97-14.68Z" style="fill:url(#e)"/><path d="M140.46 363.52c0 31.31-25.54 59.29-57.07 59.29-24 0-35.53-12.88-51.74-12.88-6.21 0-10.65 2.89-20.42 10.44-2.67 2-3.11.67-2.89-1.11 4.22-30.42 4.22-58.4 4.22-70.39l-.89-27.76c0-30-2.66-31.31-9.33-30.64-2.66.22-2.44-2-2.22-2.22 21.54-6 44.41-15.32 62.4-30.64 0 0 3.11-.67 2.66 2.66a396.27 396.27 0 0 0-3.77 55.07v9.77c.22 4.88.89 7.55 1.78 6 6-9.77 15.1-22.65 32.42-22.65 21.98-.01 44.85 19.09 44.85 55.06Zm-41.52 43.3c0-34.86-21.32-73.94-33.76-73.94-2.88 0-3.77 4.22-3.77 21.32v11.32c0 35.31 13.32 54.4 29.31 54.4 5.77 0 8.22-5.33 8.22-13.1Z" style="fill:url(#f)"/><path d="M260.81 398.83c-12 15.54-36.2 24.2-52.41 24.2-31.53 0-59.06-20.87-59.06-55.29 0-29.09 27.31-59.29 65.28-59.29 31.31 0 57.29 17.77 45.08 56.18l-58.63 2.67c11.33 18.65 28.65 33.75 47.08 33.75 4.88 0 7.77-1.11 12-4.22a1.18 1.18 0 0 1 .66 2Zm-73.06-73.28c0 12.22 4.66 26.87 12.21 40 9.33-.44 14.88-.89 14.88-.89 10.44 0-10.21-50.4-21.09-50.4-4.22-.03-6 4.85-6 11.29Z" style="fill:url(#g)"/><path d="M413.57 366.41c0 35.08-21.09 56.62-42.85 56.62-11.55 0-22.87-9.32-27.76-29.09-5.77 21.54-19.32 28.87-32.42 28.87-28.87 0-41.74-21.76-40.86-41.74.67-15.32 14.44-23.54 39.09-23.54 12.87 0 19.76.89 25.75 2.44L329 337.54c-3.33-13.32-10.66-19.76-21.32-19.76-14.87 0-26.64 5.33-30 26.87-.45 2.66-2.89 2.89-2.44 0 4.66-30.64 32.64-36.42 54.62-36.42 31.09 0 45.3 9.11 52 36.2l9.77 42.41c1.11 5.11 3.78 7.77 8.44 7.77 8.88 0 11.54-18.43 11.32-28.2-.04-1.55 2.18-2.41 2.18 0ZM341 386.17l-5.77-23.31a26.47 26.47 0 0 0-10.23-2.22c-7.55 0-10.43 3.33-10.43 15.1 0 12.43 7.1 25.31 17.54 25.31a8.6 8.6 0 0 0 8-4.44c1.3-2.22 1.74-5.33.89-10.44Z" style="fill:url(#h)"/><path d="M573.89 365.52c0 30.87-20.65 57.29-42.18 57.29-13.55 0-28-7.33-31.31-26.2C497.73 409 488.63 423 462.65 423c-21.32 0-37.75-14-37.75-44.18v-20.18c0-18.65-1.11-27.76-14.44-26.65-1.33.22-1.55-1.77 0-2 19.77-4.21 45.52-13.32 63.07-24.86 1.33-.89 3.11-2 2.88 1.33-2.44 29.53-2.66 39.08-2.66 56v20.43c0 18.88 3.55 26.43 10.21 26.43 11.77 0 15.77-15.1 15.77-23.54v-27.14c0-18.65-1.11-27.76-14.43-26.65-1.34.22-1.56-1.77 0-2 19.76-4.21 45.52-13.32 63.06-24.86 1.33-.89 3.11-2 2.88 1.33-2.44 29.53-2.66 39.08-2.66 56V378c0 10.43 2.22 16.65 8.22 16.65 13.1 0 14.65-16.65 15.32-28.86 0-1.38 1.77-1.6 1.77-.27Z" style="fill:url(#i)"/><path d="M584.77 391.06V322c0-3.33 0-6.88-4.66-6.88h-8c-2 0-1.33-1.56 0-1.78 20.88-3.55 49.52-22.43 60.4-46.19.44-1.11.89-1.77 1.33-1.77.67 0 .67.44.67 1.77-.67 18.66-.89 29.54-1.11 41.53 0 4.22 2.22 4.22 6 4.22h17.76c.44 0 .89 2.22-1.78 2.22h-16c-4.89 0-5.78 1.11-5.78 5.1v57.29c0 24.65 17.1 22.87 30.2 9.11 1.55-1.56 2.44-.22 1.33 1.33C645 414.15 627.63 423 614.3 423c-17.98 0-29.53-15.51-29.53-31.94Z" style="fill:url(#j)"/><path d="M796.16 314.89c-8 0-12 8.67-21.76 32.42l-30 74.17C732.65 450.35 723.77 467 698.9 467c-16.87 0-37.3-9.55-37.3-19.32 0-11.32 24-53.07 21.54-40.86-2.22 11.33 16.21 51.3 34.19 51.3a7 7 0 0 0 7.33-6.66c0-6.66-8.88-27.32-13.32-37.31a.77.77 0 0 0-.22-.44L684 347.31c-9.55-23.75-13.77-32.42-21.76-32.42a1.12 1.12 0 0 1 0-2.22c2.21 0 7.32.45 10.65.45h52.63c5.77 0 14.43-.45 18.43-.45 2 0 2 2.22 0 2.22-14 0-17.54 8.67-7.77 32.65l16 39.74c.88 2.22 2.88 2.45 3.77.23l16.21-40c9.55-24 5.55-32.65-9.55-32.65-2.22 0-2.22-2.22 0-2.22 4.44 0 13.55.45 20 .45h2.88c3.33 0 8.44-.45 10.66-.45a1.12 1.12 0 0 1 .01 2.25Z" style="fill:url(#k)"/><path d="M333.42 58.17V28c0-1.41 0-2.72-2-2.72h-3.3c-.66 0-.47-.57 0-.66 7.34-1.32 15.44-7.06 18.17-15.44.09-.37.28-.66.47-.66s.28.19.28.66c-.19 5.55-.28 9.13-.47 13.55 0 1.6.66 1.79 2.44 1.79h8.47c.19 0 .19.76-.56.76h-7.72c-2.07 0-2.63.56-2.63 2.35v27.1c0 9 7.06 9.6 12.51 2.82.57-.56.95-.19.47.47-6 8.28-11.76 11.39-16.28 11.39-5.89-.04-9.85-5.03-9.85-11.24Z" style="fill:url(#l)"/><path d="M424.24 50.36c0 12.33-6.59 19-13 19-4.23 0-7.53-3.58-9.22-10.54l-6.12-24.75c-.94-4-2.07-6.31-6.4-6.31-5.83 0-9.41 7.06-9.41 16.76v14c0 6.4 1.13 8.65 5.65 8.75.56 0 .66.75 0 .75-4.61-.28-19.76-.19-24.47 0-.66 0-.66-.75.1-.75 3.95 0 5.55-.57 5.55-8.85l-.28-39.8c0-8.85-1.51-9.32-4.14-8.94-.85.09-.76-.66-.76-.66 6.68-1.79 13.46-4.42 18.73-9 0 0 1-.19.85.75a125 125 0 0 0-1.23 20.14v14.58c1.7-6.59 7.62-12.61 15.81-12.61 8.38 0 11.86 3.95 13.55 10.73L415.2 57c.75 2.82 1.79 4.51 3.77 4.51 2.44 0 4.51-4.79 4.42-11.1 0-.61.85-.9.85-.05Z" style="fill:url(#m)"/><path d="M467.81 60c-5 6.3-13.08 9.41-20.23 9.41-12.23 0-22.77-8.66-22.77-22.4 0-13.08 10.91-24.09 25-24.09 11.86 0 21.27 7.91 16.75 22.12-3.95.09-14.3.37-29.27.94 3.86 9.6 12.71 17.13 21 17.13a11.59 11.59 0 0 0 9.13-3.77c.11-.13.77.05.39.66Zm-32.46-24a27.69 27.69 0 0 0 1.65 9.18c7.72-.09 13.84-.56 17.5-.56 3.58-4-4-19.76-10.35-19.76-5.7 0-8.8 3.76-8.8 11.14Z" style="fill:url(#n)"/><path d="M355.37 270.73c0-13.74 11.48-23.9 26.34-24 14.12-.1 24.28 9 24.28 22.3 0 13.83-11.76 24.18-26.91 24.18-13.74.01-23.71-9.11-23.71-22.48Zm39.42 10.17c0-11.67-10.82-31.72-18.72-32-5.84-.09-9.69 3.2-9.69 10.07 0 11.48 10.82 31.62 18.63 31.9 5.99.13 9.78-3.29 9.78-9.97Z" style="fill:url(#o)"/><path d="M410.33 249c-.66 0-.66-.57 0-.66 4.51-.57 7.43-2 7.43-8.29 0-16.09 16.94-20.89 25-12.51.75.85.47 1.41-.19 2.07-1.59 1.6-5.27 4.33-7.05 6-.66.66-1.13.57-1.6-.09-4.24-7.15-9.41-9.22-11.67-6.78s.66 13.46 7.62 19.2a7.05 7.05 0 0 0 2.45.28h9.22c.19 0 .28.76-.47.76h-8c-2.26 0-3.1.28-3.1 2.82v28.61c0 7.9 2.54 10.44 8.09 10.44.84 0 .84.85 0 .85-1.88-.1-5.27-.19-7.81-.19l-13.55.09c-2 0-4.62.1-6 .19-.65 0-.65-.75 0-.85 4.24 0 6.12-2.63 6.12-10.44v-28.7c0-2.17-.56-2.82-2.35-2.82Z" style="fill:url(#p)"/></g></g></svg>
